# xmcd
#
# Track frame offsets:
#	150
#	12112
#	24077
#	44367
#	59295
#	84000
#	99037
#	111847
#	127050
#	142170
#	161092
#	173882
#	186510
#	203525
#	214977
#	237980
#	253237
#	265960
#	279707
#	298165
#
# Disc length: 4213 seconds
#
# Revision: 1
# Processed by: cddbd v1.5.2PL0 Copyright (c) Steve Scherf et al.
# Submitted via: audiograbber 1.83.01
#
DISCID=27107314
DTITLE=Louise Morrissey - The very best Of
DYEAR=2007
DGENRE=Country - Irish - Gospel
TTITLE0=Ramblin'   Rose
TTITLE1=Here I am in love Again
TTITLE2=Silver threads among the Gold
TTITLE3=You never can Tell
TTITLE4=Working Man
TTITLE5=I couldn't leave you if I Tried
TTITLE6=The old Rugged Cross
TTITLE7=Jambalaya
TTITLE8=Moonlight in Mayo
TTITLE9=The Coyyage in the Country
TTITLE10=Blue eyes crying in the Rain
TTITLE11=Except for Mondays
TTITLE12=Amazing Grace
TTITLE13=Never ending Love for You
TTITLE14=The old rustic bridge by the Mill
TTITLE15=Achy breaky Heart
TTITLE16=Slievenamon
TTITLE17=Let's sing Together
TTITLE18=In an Irish country Home
TTITLE19=Now is the Hour
EXTD=Irish singer,has won 28 Music Awards
EXTT0=
EXTT1=
EXTT2=
EXTT3=
EXTT4=
EXTT5=
EXTT6=
EXTT7=
EXTT8=
EXTT9=
EXTT10=
EXTT11=
EXTT12=
EXTT13=
EXTT14=
EXTT15=
EXTT16=
EXTT17=
EXTT18=
EXTT19=
PLAYORDER=
